<svg xmlns="http://www.w3.org/2000/svg" viewBox="86 92 340 340"><!-- The tab icon: Octo alone, no background square (owner, 4 Oct 2026; Bizzing Bee's tab look). The app icon (icon.svg) keeps its cobalt square. No lettering, no digits. -->
<g fill="#F2734F" stroke="#3A2A5C" stroke-width="12" stroke-linejoin="round" stroke-linecap="round">
<path d="M150 330c-40 10-56 54-24 66 22 8 34-16 22-26M206 352c-16 34 4 72 34 60 18-8 10-30-4-30M306 352c16 34-4 72-34 60-18-8-10-30 4-30M362 330c40 10 56 54 24 66-22 8-34-16-22-26"/>
<circle cx="256" cy="236" r="128"/></g>
<path d="M190 330l66 30 66-30-66 22z" fill="#9CC3F0" stroke="#3A2A5C" stroke-width="8" stroke-linejoin="round"/>
<circle cx="208" cy="228" r="26" fill="#3A2A5C"/><circle cx="304" cy="228" r="26" fill="#3A2A5C"/>
<circle cx="216" cy="218" r="9" fill="#fff"/><circle cx="312" cy="218" r="9" fill="#fff"/>
<circle cx="176" cy="270" r="16" fill="#F7A08A"/><circle cx="336" cy="270" r="16" fill="#F7A08A"/>
<path d="M236 274q20 18 40 0" fill="none" stroke="#3A2A5C" stroke-width="9" stroke-linecap="round"/>
<ellipse cx="206" cy="160" rx="34" ry="18" fill="#FFB9A3" opacity=".7"/>
</svg>
